<svg width="14" height="16" viewBox="0 0 14 16" fill="none" xmlns="http://www.w3.org/2000/svg">
<g id="Bag">
<path id="Path_33955" fill-rule="evenodd" clip-rule="evenodd" d="M3.99043 14.3334H9.55565C11.5999 14.3334 13.1682 13.595 12.7227 10.6232L12.204 6.59575C11.9294 5.11292 10.9836 4.54541 10.1537 4.54541H3.36801C2.5259 4.54541 1.63498 5.15563 1.31766 6.59575L0.798974 10.6232C0.420637 13.2594 1.94619 14.3334 3.99043 14.3334Z" stroke="#0A0A0A" stroke-opacity="0.77" stroke-width="1.5" stroke-linecap="round" stroke-linejoin="round"/>
<path id="Path_33956" d="M3.89918 4.39882C3.89918 2.80811 5.18871 1.51858 6.77943 1.51858V1.51858C7.54543 1.51533 8.28117 1.81735 8.82396 2.35786C9.36675 2.89836 9.67188 3.63282 9.67188 4.39882V4.39882" stroke="#0A0A0A" stroke-opacity="0.77" stroke-width="1.5" stroke-linecap="round" stroke-linejoin="round"/>
<path id="Line_192" d="M4.80268 7.4013H4.83319" stroke="#0A0A0A" stroke-opacity="0.77" stroke-width="1.5" stroke-linecap="round" stroke-linejoin="round"/>
<path id="Line_193" d="M8.6894 7.4013H8.71991" stroke="#0A0A0A" stroke-opacity="0.77" stroke-width="1.5" stroke-linecap="round" stroke-linejoin="round"/>
</g>
</svg>
