<svg width="17" height="18" viewBox="0 0 17 18" fill="none" xmlns="http://www.w3.org/2000/svg">
<g id="Bag">
<path id="Path_33955" fill-rule="evenodd" clip-rule="evenodd" d="M5.2395 16.9166H12.196C14.7513 16.9166 16.7117 15.9936 16.1548 12.2789L15.5065 7.24457C15.1632 5.39102 13.9809 4.68164 12.9435 4.68164H4.46147C3.40884 4.68164 2.29519 5.44442 1.89854 7.24457L1.25018 12.2789C0.777262 15.5741 2.6842 16.9166 5.2395 16.9166Z" stroke="white" stroke-width="1.5" stroke-linecap="round" stroke-linejoin="round"/>
<path id="Path_33956" d="M5.12593 4.49877C5.12593 2.51038 6.73784 0.89847 8.72624 0.89847V0.89847C9.68374 0.894413 10.6034 1.27194 11.2819 1.94757C11.9604 2.62319 12.3418 3.54127 12.3418 4.49877V4.49877" stroke="white" stroke-width="1.5" stroke-linecap="round" stroke-linejoin="round"/>
<path id="Line_192" d="M6.25384 8.25151H6.29198" stroke="white" stroke-width="1.5" stroke-linecap="round" stroke-linejoin="round"/>
<path id="Line_193" d="M11.1132 8.25151H11.1514" stroke="white" stroke-width="1.5" stroke-linecap="round" stroke-linejoin="round"/>
</g>
</svg>
