<svg width="12" height="12" viewBox="0 0 12 12" fill="none" xmlns="http://www.w3.org/2000/svg">
<path id="Vector" d="M11.3723 1.93671C11.2619 1.63751 11.0858 1.3667 10.8569 1.14441C10.6346 0.915527 10.364 0.73938 10.0646 0.628967C9.82178 0.534668 9.45703 0.422424 8.78522 0.391846C8.05847 0.358704 7.84058 0.351562 6.00073 0.351562C4.16071 0.351562 3.94281 0.358521 3.21625 0.391663C2.54443 0.422424 2.1795 0.534668 1.93689 0.628967C1.63751 0.73938 1.3667 0.915527 1.14459 1.14441C0.91571 1.3667 0.739563 1.63733 0.628967 1.93671C0.534668 2.1795 0.422424 2.54443 0.391846 3.21625C0.358704 3.94281 0.351562 4.16071 0.351562 6.00073C0.351562 7.84058 0.358704 8.05847 0.391846 8.78522C0.422424 9.45703 0.534668 9.82178 0.628967 10.0646C0.739563 10.364 0.915527 10.6346 1.14441 10.8569C1.3667 11.0858 1.63733 11.2619 1.93671 11.3723C2.1795 11.4668 2.54443 11.579 3.21625 11.6096C3.94281 11.6428 4.16052 11.6497 6.00055 11.6497C7.84076 11.6497 8.05865 11.6428 8.78503 11.6096C9.45685 11.579 9.82178 11.4668 10.0646 11.3723C10.6655 11.1405 11.1405 10.6655 11.3723 10.0646C11.4666 9.82178 11.5789 9.45703 11.6096 8.78522C11.6428 8.05847 11.6497 7.84058 11.6497 6.00073C11.6497 4.16071 11.6428 3.94281 11.6096 3.21625C11.579 2.54443 11.4668 2.1795 11.3723 1.93671ZM6.00073 9.53888C4.04645 9.53888 2.46222 7.95483 2.46222 6.00055C2.46222 4.04626 4.04645 2.46222 6.00073 2.46222C7.95483 2.46222 9.53906 4.04626 9.53906 6.00055C9.53906 7.95483 7.95483 9.53888 6.00073 9.53888ZM9.67896 3.14923C9.22229 3.14923 8.85205 2.77899 8.85205 2.32233C8.85205 1.86566 9.22229 1.49542 9.67896 1.49542C10.1356 1.49542 10.5059 1.86566 10.5059 2.32233C10.5057 2.77899 10.1356 3.14923 9.67896 3.14923Z" fill="white"/>
</svg>
